<?xml version="1.0" encoding="UTF-8" standalone="no"?>
<svg
   width="37px"
   height="36px"
   viewBox="0 0 37 36"
   version="1.1"
   id="svg15"
   sodipodi:docname="facebook.svg"
   inkscape:version="1.2.2 (b0a8486541, 2022-12-01)"
   xmlns:inkscape="http://www.inkscape.org/namespaces/inkscape"
   xmlns:sodipodi="http://sodipodi.sourceforge.net/DTD/sodipodi-0.dtd"
   xmlns="http://www.w3.org/2000/svg"
   xmlns:svg="http://www.w3.org/2000/svg">
  <sodipodi:namedview
     id="namedview17"
     pagecolor="#ffffff"
     bordercolor="#000000"
     borderopacity="0.25"
     inkscape:showpageshadow="2"
     inkscape:pageopacity="0.0"
     inkscape:pagecheckerboard="0"
     inkscape:deskcolor="#d1d1d1"
     showgrid="false"
     inkscape:zoom="6.5555556"
     inkscape:cx="-11.745763"
     inkscape:cy="18"
     inkscape:window-width="1680"
     inkscape:window-height="981"
     inkscape:window-x="0"
     inkscape:window-y="32"
     inkscape:window-maximized="1"
     inkscape:current-layer="Group-3" />
  <!-- Generator: Sketch 43.1 (39012) - http://www.bohemiancoding.com/sketch -->
  <title
     id="title2">Group 3</title>
  <desc
     id="desc4">Created with Sketch.</desc>
  <defs
     id="defs6" />
  <g
     id="Web-"
     stroke="none"
     stroke-width="1"
     fill="none"
     fill-rule="evenodd">
    <g
       id="Landing"
       transform="translate(-570.000000, -1843.000000)"
       fill="#565656">
      <g
         id="Group-21"
         transform="translate(-302.000000, 1294.000000)">
        <g
           id="Group-18"
           transform="translate(843.000000, 153.000000)">
          <g
             id="Group-9"
             transform="translate(29.896552, 396.719424)">
            <g
               id="Group-3">
              <path
                 d="M17.5862069,35.1079137 C7.87361254,35.1079137 0,27.24874 0,17.5539568 C0,7.8591737 7.87361254,0 17.5862069,0 C27.2988013,0 35.1724138,7.8591737 35.1724138,17.5539568 C35.1724138,27.24874 27.2988013,35.1079137 17.5862069,35.1079137 Z M19.7021793,6.22252662 C18.9635586,6.22252662 18.2544828,6.31099856 17.4272276,6.63539568 C15.7431724,7.31368058 14.8863724,8.90617554 14.8863724,11.3833899 L14.8863724,13.801623 L12.5227862,13.801623 L12.5227862,17.8418417 L14.8863724,17.8418417 L14.8863724,29.4906475 L19.7021793,29.4906475 L19.7021793,17.8418417 L22.9816552,17.8418417 L23.4248276,13.801623 L19.7021793,13.801623 L19.7021793,11.9732029 C19.7021793,11.4128806 19.761269,11.0000115 19.9089931,10.7640863 C20.1158069,10.4101986 20.5294345,10.2332547 21.1794207,10.2332547 L23.3657379,10.2332547 L23.3657379,6.22252662 L19.7021793,6.22252662 Z"
                 id="facebook_c"
                 style="fill:#36427a;fill-opacity:1" />
            </g>
          </g>
        </g>
      </g>
    </g>
  </g>
</svg>
