<svg width="981" height="80" viewBox="0 0 981 80" fill="none" xmlns="http://www.w3.org/2000/svg">
<g clip-path="url(#clip0_611_2022)">
<path d="M79.0081 54.5203C78.7744 55.9268 78.6534 57.3641 78.2864 58.7337C76.2894 66.1722 71.383 70.9126 64.2848 73.5164C59.1795 75.3904 53.8528 75.9399 48.4502 75.8928C47.3759 75.8825 46.2995 75.8764 45.2292 75.8046C42.8488 75.6467 41.8298 73.6764 43.1256 71.6917C45.1923 68.528 46.1416 65.0323 46.486 61.3048C46.7936 57.971 47.2262 54.6495 47.6506 51.328C48.2965 46.2781 51.1997 42.7987 55.4623 40.3096C58.8289 38.3454 62.5072 37.3182 66.3495 36.8856C68.2747 36.6703 70.2246 36.6375 72.1642 36.578C72.6665 36.5637 72.8756 36.4058 73.0191 35.9506C73.6793 33.8573 74.3682 31.7721 75.0428 29.6828C75.2437 29.0595 75.6456 28.6577 76.314 28.6474C76.9045 28.6372 77.3781 28.9345 77.538 29.5085C77.6282 29.8284 77.6016 30.2262 77.5011 30.5481C76.7856 32.8116 76.0167 35.0587 75.3134 37.3264C75.1986 37.6934 75.2027 38.1937 75.3606 38.5361C77.2243 42.5834 78.5591 46.7701 78.8851 51.2419C78.8974 51.4161 78.9671 51.5863 79.0081 51.7585V54.5224V54.5203ZM73.9315 41.4721C73.8557 41.4865 73.7798 41.5008 73.7039 41.5152C73.6301 41.6669 73.5481 41.8125 73.4825 41.9683C71.8156 45.9562 69.9355 49.8374 67.7068 53.5444C65.232 57.6593 62.4047 61.4975 58.8453 64.7555C58.5849 64.9933 58.304 65.2619 57.9821 65.3685C57.367 65.5735 56.8012 65.3993 56.4649 64.8067C56.0938 64.1568 56.2906 63.6032 56.7971 63.0845C58.1011 61.7497 59.4645 60.4642 60.6537 59.033C65.4945 53.2122 68.8283 46.5282 71.6372 39.5551C71.6782 39.4526 71.6741 39.3295 71.711 39.0958C70.0072 39.227 68.3711 39.2967 66.7513 39.4874C63.3519 39.8872 60.0776 40.7525 57.0615 42.4214C53.2726 44.5168 50.7015 47.5103 50.1766 51.9656C49.8034 55.1375 49.3872 58.3072 49.0961 61.4873C48.7291 65.4915 47.7429 69.2785 45.5778 72.7086C45.5019 72.8275 45.4588 72.969 45.3235 73.2684C46.0719 73.2684 46.6993 73.2561 47.3267 73.2684C52.7784 73.3873 58.1564 72.9526 63.3355 71.095C68.7996 69.1349 72.8961 65.6433 75.1105 60.1935C76.8204 55.9883 76.7363 51.6437 75.6886 47.3073C75.213 45.3349 74.5241 43.4158 73.9315 41.4721Z" fill="white"/>
<path d="M31.7337 79.5402C30.0853 77.7298 28.4225 75.9337 26.8007 74.1007C26.3968 73.6435 25.9847 73.4467 25.3737 73.3893C18.9542 72.7906 12.8729 71.1585 7.82505 66.9226C2.27076 62.2602 -0.0214912 56.14 0.530043 48.9885C1.05902 42.1179 3.91716 36.0531 7.41909 30.2528C7.8148 29.5967 8.21871 28.9406 8.67593 28.3275C9.73595 26.9046 11.9851 26.9066 12.7397 28.4854C14.8269 32.8444 18.3698 35.7353 22.1957 38.411C24.246 39.8462 26.2328 41.3757 28.2236 42.895C32.9393 46.4871 34.3787 51.4304 33.9501 57.0852C33.5565 62.2889 31.6763 67.0128 29.0294 71.4497C28.6788 72.0361 28.6849 72.3867 29.1545 72.8829C30.4359 74.2402 31.6538 75.6549 32.9065 77.0368C33.8476 78.0742 33.7882 78.7488 32.6543 79.5402H31.7337ZM23.92 70.6398C23.7129 70.3384 23.5858 70.1498 23.4546 69.9653C21.9968 67.8965 20.4673 65.8749 19.0936 63.7528C15.5055 58.2108 12.5428 52.3777 11.1281 45.8618C10.9087 44.8489 11.2224 44.16 12.0118 43.9611C12.7909 43.7643 13.3712 44.2707 13.6664 45.2446C14.3697 47.5635 14.9827 49.9214 15.8848 52.1624C18.4539 58.5471 22.2511 64.208 26.4829 69.5942C26.5834 69.7213 26.7248 69.8197 26.8807 69.9632C29.3369 65.6617 31.1084 61.1981 31.377 56.2671C31.6333 51.5678 30.2575 47.541 26.2758 44.6747C24.5536 43.4342 22.862 42.1548 21.1664 40.8795C18.7389 39.0527 16.0981 37.4678 14.1318 35.1017C12.8483 33.5579 11.7288 31.8766 10.5397 30.261C10.5889 30.2159 10.5233 30.2569 10.4864 30.3163C9.97173 31.1385 9.43455 31.9504 8.95068 32.791C6.01873 37.8758 3.60346 43.1677 3.14214 49.1115C2.63366 55.6336 4.76394 61.153 9.91637 65.3152C13.9411 68.5669 18.7348 69.9202 23.9241 70.6419L23.92 70.6398Z" fill="white"/>
<path d="M63.4583 25.6888C60.5592 25.6929 57.7748 26.2465 55.1156 27.4192C52.0073 28.7888 48.8683 30.0887 45.7846 31.5117C39.5988 34.3677 33.9912 33.1191 28.7465 29.2092C24.8653 26.3162 21.9436 22.5907 19.6185 18.3835C19.2659 17.7438 18.9235 17.5962 18.2428 17.752C16.1514 18.2318 14.0499 18.6603 11.9462 19.0827C11.1343 19.2467 10.5356 18.8612 10.3593 18.1395C10.185 17.4281 10.5623 16.8212 11.3394 16.569C11.4357 16.5382 11.5321 16.5013 11.6325 16.4788C13.8817 16.0092 16.1289 15.5151 18.3863 15.0907C18.9911 14.9759 19.3684 14.7196 19.7169 14.2214C22.6222 10.0674 26.0688 6.46504 30.4995 3.91445C38.3092 -0.579836 47.0927 0.0639623 54.3529 5.63261C58.6196 8.90696 61.8324 13.0916 64.5901 17.6515C65.4348 19.0499 66.2119 20.4912 66.952 21.949C67.9731 23.9604 66.6957 25.8671 64.4568 25.74C64.1246 25.7216 63.7925 25.7031 63.4604 25.6867L63.4583 25.6888ZM22.8478 14.2624C23.1102 14.2911 23.1881 14.3136 23.2619 14.3054C23.8709 14.2419 24.4819 14.1722 25.0908 14.1025C31.8486 13.3315 38.6065 13.1327 45.3376 14.3259C47.2424 14.6642 49.1123 15.2117 50.9821 15.7201C51.7592 15.9313 52.0955 16.6346 51.8863 17.3317C51.6649 18.0698 50.9944 18.4122 50.1887 18.1969C50.041 18.158 49.8955 18.1108 49.7479 18.0637C46.6109 17.0816 43.3939 16.5444 40.1237 16.2942C35.3649 15.9293 30.6205 16.1241 25.8822 16.6305C24.6008 16.7679 23.3234 16.9606 22.0604 17.1246C22.0604 17.2784 22.042 17.3378 22.0625 17.3748C24.7792 22.0351 28.1109 26.1173 32.9312 28.7642C36.5049 30.7264 40.1831 31.0585 43.9742 29.3957C45.9835 28.5141 48.0051 27.655 50.0226 26.7918C53.0222 25.5083 55.9275 23.9419 59.208 23.4642C60.9446 23.212 62.7017 23.1115 64.4712 22.9413C64.4671 22.927 64.463 22.8224 64.4199 22.7384C61.6581 17.3829 58.3571 12.4253 53.7275 8.47434C50.2133 5.47474 46.168 3.67046 41.52 3.5905C33.2797 3.44903 27.7624 8.1791 22.8478 14.2624Z" fill="white"/>
</g>
<g clip-path="url(#clip1_611_2022)">
<path d="M234.765 79.5361C233.006 78.8862 232.421 77.6027 232.438 75.7718C232.497 68.8417 232.477 61.9116 232.45 54.9836C232.444 53.5792 232.965 52.5745 234.211 51.9328C234.687 51.6867 235.144 51.4017 235.608 51.1311C236.311 50.719 237.043 50.6903 237.828 50.8728C238.136 50.9445 238.529 50.9158 238.808 50.7785C239.585 50.393 240.319 49.9255 241.072 49.4909C242.234 48.8204 243.11 47.8834 243.704 46.6778C244.358 45.3492 245.029 44.0288 245.671 42.6941C246.542 40.8857 247.854 39.5079 249.601 38.5237C251.137 37.6606 252.648 36.7482 254.188 35.8932C254.602 35.6636 254.743 35.3991 254.735 34.9316C254.712 33.5517 254.669 32.1657 254.77 30.792C254.926 28.6187 255.857 26.7734 257.404 25.2377C258.493 24.1572 259.572 23.0644 260.66 21.9839C261.94 20.7127 262.6 19.1913 262.573 17.3789C262.563 16.6633 262.565 15.9477 262.573 15.2301C262.584 14.3977 262.641 13.6145 261.845 12.9666C261.485 12.6734 261.325 11.9619 261.314 11.435C261.263 8.8024 261.271 6.16775 261.298 3.53515C261.312 2.06098 262.409 0.968161 263.89 0.96406C270.436 0.947658 276.981 0.949708 283.528 0.96406C285 0.968161 286.127 2.04868 286.15 3.5208C286.191 6.18006 286.218 8.84136 286.119 11.4965C286.095 12.1342 285.555 12.7534 285.26 13.3828C285.11 13.7027 284.887 14.0204 284.848 14.3588C284.487 17.4301 285.322 20.1263 287.259 22.5682C288.508 24.1408 289.683 25.8385 289.929 27.9236C290.066 29.0861 290.054 30.2692 290.072 31.442C290.095 32.7972 290.107 34.1525 290.064 35.5077C290.045 36.09 290.207 36.4365 290.741 36.7174C291.891 37.3264 293.002 38.0112 294.13 38.6611C295.702 39.5673 296.894 40.8324 297.703 42.4562C298.353 43.7582 299.022 45.0519 299.639 46.3703C300.313 47.8116 301.318 48.9188 302.729 49.661C303.157 49.8866 303.588 50.1183 303.988 50.393C304.662 50.8564 305.322 51.1578 306.173 50.8092C306.471 50.6882 306.926 50.7169 307.219 50.8584C308.714 51.5863 310.383 52.1214 311.043 53.9031V77.2316C310.649 78.3736 309.866 79.124 308.74 79.5341H307.512C307.19 79.3844 306.856 79.2573 306.548 79.081C302.854 76.9548 299.151 74.8389 295.483 72.6676C294.989 72.3764 294.411 71.8413 294.318 71.339C294.136 70.3302 293.449 69.9878 292.719 69.5819C292.004 69.1862 291.308 68.7556 290.589 68.3701C289.203 67.6279 287.735 67.4372 286.209 67.8268C284.678 68.2184 283.148 68.6285 281.625 69.0488C279.335 69.6782 277.11 69.547 275.015 68.3988C274.151 67.9273 273.333 67.4905 272.306 67.7181C272.07 67.7694 271.767 67.7468 271.554 67.6402C270.676 67.1994 269.977 67.5316 269.229 68.0031C266.867 69.4875 264.339 69.7848 261.659 68.9832C260.242 68.5588 258.801 68.2143 257.368 67.8432C255.76 67.427 254.227 67.63 252.781 68.448C251.871 68.9627 250.975 69.5081 250.054 70.0042C249.638 70.2277 249.412 70.4943 249.337 70.9863C249.216 71.7634 248.703 72.3026 248.033 72.6922C247.038 73.2683 246.05 73.8547 245.051 74.4206C242.033 76.1306 239.011 77.8323 235.991 79.5361H234.763H234.765ZM265.173 14.0861C265.173 15.4106 265.196 16.6387 265.169 17.8627C265.122 19.9951 264.353 21.8567 262.897 23.4068C261.778 24.6001 260.617 25.7564 259.438 26.8923C257.991 28.2865 257.314 29.9596 257.327 31.9689C257.355 36.0613 257.327 40.1537 257.347 44.2462C257.349 44.7423 257.45 45.2713 257.644 45.7244C257.972 46.4851 258.758 46.8706 259.52 46.7762C260.343 46.6737 261.001 46.114 261.187 45.3C261.265 44.9556 261.28 44.5906 261.282 44.2359C261.29 41.1932 261.28 38.1485 261.292 35.1059C261.296 34.2591 261.848 33.6953 262.59 33.6994C263.299 33.7035 263.832 34.2468 263.896 35.0423C263.914 35.2719 263.902 35.5016 263.902 35.7333C263.902 43.303 263.902 50.8748 263.902 58.4446C263.902 58.7767 263.89 59.113 263.935 59.441C264.062 60.3555 264.784 61.0731 265.634 61.1694C266.543 61.2699 267.416 60.7594 267.679 59.9023C267.795 59.521 267.802 59.0966 267.804 58.6906C267.812 54.9303 267.808 51.1721 267.81 47.4118C267.81 46.1222 268.269 45.4681 269.153 45.4866C270.014 45.505 270.432 46.1201 270.432 47.3852C270.432 52.4228 270.432 57.4625 270.436 62.5001C270.436 62.8568 270.444 63.2198 270.506 63.5683C270.643 64.3433 271.273 64.9605 272.044 65.0876C272.854 65.2208 273.561 64.9687 273.942 64.2449C274.192 63.7713 274.338 63.1849 274.342 62.6498C274.371 57.5609 274.359 52.47 274.361 47.3811C274.361 47.1515 274.346 46.9177 274.375 46.6922C274.461 45.9766 275.056 45.4558 275.73 45.4907C276.386 45.5235 276.907 46.0361 276.969 46.7291C276.989 46.9567 276.977 47.1884 276.977 47.42C276.977 51.1803 276.977 54.9385 276.977 58.6988C276.977 58.9551 276.967 59.2134 277.001 59.4656C277.133 60.417 277.86 61.1059 278.787 61.1776C279.685 61.2473 280.499 60.7163 280.766 59.8101C280.887 59.4021 280.917 58.953 280.917 58.5245C280.928 54.8155 280.924 51.1065 280.926 47.3995C280.926 47.1432 280.915 46.8849 280.946 46.6327C281.034 45.9541 281.463 45.5727 282.111 45.5071C282.73 45.4456 283.216 45.7429 283.419 46.3498C283.521 46.6553 283.536 47.0018 283.536 47.3298C283.544 50.3991 283.532 53.4685 283.548 56.5378C283.554 57.7126 284.327 58.5225 285.408 58.5614C286.472 58.6004 287.308 57.8172 287.423 56.6711C287.437 56.5193 287.446 56.3656 287.446 56.2118C287.446 47.3114 287.446 38.411 287.446 29.5106C287.446 28.1635 287.058 26.9477 286.31 25.8323C285.527 24.6657 284.774 23.4765 283.968 22.3263C282.738 20.5671 282.166 18.6234 282.205 16.487C282.219 15.7017 282.207 14.9164 282.207 14.0922H265.167L265.173 14.0861ZM254.723 38.6037C253.302 39.4197 252.004 40.1599 250.71 40.9103C249.552 41.5828 248.674 42.5157 248.088 43.7274C247.497 44.9453 246.86 46.1386 246.296 47.3667C245.343 49.4396 243.874 51.004 241.859 52.0701C241.211 52.4126 240.59 52.8021 239.928 53.1855C242.788 58.137 245.605 63.0147 248.43 67.9088C249.617 67.2384 250.716 66.5905 251.84 65.9918C253.345 65.1901 254.975 64.7821 256.65 65.0978C258.676 65.4771 260.677 66.0102 262.67 66.5495C264.775 67.1174 266.639 66.6766 268.372 65.4505C268.158 64.7677 267.957 64.1219 267.773 63.5273C267.055 63.6216 266.352 63.8123 265.657 63.7877C263.277 63.7016 261.351 61.7189 261.312 59.2831C261.263 56.14 261.296 52.9969 261.29 49.8517C261.29 49.5872 261.265 49.3227 261.251 49.0234C261.029 49.0869 260.884 49.1259 260.74 49.171C258.272 49.9112 255.852 48.7097 255.036 46.2678C254.815 45.6055 254.753 44.8674 254.739 44.1621C254.698 42.3599 254.725 40.5556 254.725 38.6037H254.723ZM283.288 60.6589C282.746 61.9117 281.969 62.8897 280.733 63.4391C279.499 63.9886 278.262 63.8594 277.096 63.4514C276.747 64.329 276.423 65.1491 276.081 66.0123C277.305 66.7196 278.664 67.0087 280.089 66.695C281.635 66.3567 283.173 65.9672 284.684 65.5038C287.524 64.6324 290.177 64.9625 292.69 66.5413C293.457 67.0231 294.259 67.4475 295.075 67.915C297.931 62.9696 300.738 58.1063 303.578 53.1855C302.876 52.7796 302.228 52.3797 301.558 52.0189C299.571 50.9527 298.134 49.3924 297.197 47.3421C296.625 46.0873 295.967 44.8736 295.374 43.629C294.31 41.4024 292.157 40.574 290.084 39.3705C290.084 39.8339 290.084 40.1332 290.084 40.4326C290.084 45.7019 290.109 50.9691 290.074 56.2384C290.05 60.05 286.89 62.1228 283.288 60.661V60.6589ZM237 53.3598C236.579 53.6017 236.227 53.8621 235.833 54.022C235.222 54.2701 235.058 54.6679 235.06 55.3199C235.085 62.2438 235.075 69.1677 235.077 76.0916C235.077 77.0143 235.187 77.0819 235.971 76.6308C238.913 74.9393 241.853 73.2417 244.793 71.544C245.451 71.1647 246.103 70.7793 246.817 70.363C243.534 64.6775 240.284 59.0474 237 53.3598ZM296.719 70.3179C296.832 70.4143 296.881 70.4717 296.945 70.5086C300.523 72.5815 304.098 74.6543 307.68 76.719C308.25 77.0471 308.42 76.9322 308.424 76.2269C308.435 74.6933 308.427 73.1617 308.427 71.6281C308.427 66.1353 308.431 60.6425 308.416 55.1497C308.416 54.877 308.347 54.4916 308.164 54.3521C307.668 53.9749 307.092 53.7001 306.503 53.3598C303.215 59.0597 299.967 64.6898 296.721 70.3179H296.719ZM283.53 3.62127H263.959V11.353H283.53V3.62127Z" fill="white"/>
</g>
<g clip-path="url(#clip2_611_2022)">
<path d="M464.474 4.64123C464.57 4.41365 464.677 4.18811 464.763 3.95643C465.425 2.18906 467.041 0.993725 468.925 0.969122C471.354 0.938367 473.784 0.95887 476.214 0.96092C476.997 0.96092 477.624 1.28897 478.2 1.81385C478.465 2.05374 478.885 2.25057 479.234 2.25057C480.931 2.25467 482.596 2.28747 484.138 3.18756C484.47 3.38029 485.034 3.24497 485.475 3.16911C487.191 2.86976 488.876 2.80415 490.515 3.54431C492.713 4.53872 494.068 6.22817 494.695 8.53477C496.645 15.7047 498.615 22.8685 500.526 30.0487C500.75 30.8852 501.098 31.0882 501.918 31.0841C508.568 31.0493 515.219 31.0575 521.868 31.0677C526.629 31.0759 530.358 34.219 531.154 38.8938C531.252 39.4678 531.25 40.0645 531.25 40.6509C531.258 45.4342 531.254 50.2156 531.254 54.999C531.254 55.2757 531.254 55.5525 531.254 55.9031C531.584 55.9216 531.855 55.9483 532.126 55.9483C534.402 55.9524 536.679 55.9236 538.955 55.9585C541.957 56.0036 543.874 58.7674 542.734 61.4062C542.019 63.0649 540.671 63.8173 538.896 63.8256C536.645 63.8358 534.393 63.8276 532.144 63.8276C531.869 63.8276 531.597 63.8276 531.322 63.8276C531.209 64.4447 531.22 64.8364 531.753 65.2177C534.51 67.1942 535.687 69.9232 535.011 73.2385C534.336 76.5498 532.195 78.5899 528.894 79.3813C528.751 79.4161 528.614 79.4817 528.472 79.5309H526.17C526.106 79.492 526.047 79.4305 525.979 79.4161C522.526 78.6739 520.306 76.5867 519.645 73.136C519.004 69.7838 520.248 67.0712 523.055 65.0947C523.203 64.9901 523.381 64.8036 523.389 64.6457C523.426 63.9445 523.406 63.2392 523.406 62.501C520.097 62.501 516.9 62.5195 513.706 62.4846C513.113 62.4785 512.884 62.6876 512.679 63.2146C509.517 71.3317 503.727 76.5416 495.302 78.7785C494.004 79.1229 492.657 79.2829 491.333 79.5289H487.343C487.175 79.4838 487.011 79.412 486.84 79.3956C476.661 78.3828 468.07 71.1554 465.398 61.2955C464.988 59.7782 464.779 58.2077 464.476 56.6618C464.476 55.3311 464.476 54.0025 464.476 52.6719C464.523 52.475 464.584 52.2802 464.613 52.0814C466.087 41.5776 471.812 34.5307 481.805 30.9734C482.752 30.6351 483.747 30.428 484.712 30.1615C484.712 30.059 484.723 30.0056 484.712 29.9585C483.107 23.5431 481.495 17.1297 479.906 10.7081C479.787 10.2263 479.57 10.1217 479.121 10.1238C475.847 10.1402 472.572 10.1402 469.3 10.1279C466.918 10.1197 465.29 8.87718 464.609 6.59518C464.576 6.50702 464.519 6.4209 464.474 6.33069C464.474 5.76685 464.474 5.20507 464.474 4.64123ZM489.391 32.4025C477.083 32.4004 467.104 42.3321 467.09 54.5971C467.075 66.8826 477.04 76.9086 489.278 76.9229C501.631 76.9352 511.614 66.9502 511.608 54.5909C511.6 42.3526 501.642 32.4045 489.391 32.4025ZM502.835 33.688C503.842 34.4774 504.672 35.1765 505.558 35.7978C505.923 36.0541 506.405 36.2858 506.835 36.2878C511.768 36.3227 516.701 36.3063 521.634 36.3104C524.435 36.3124 526.018 37.8911 526.02 40.6714C526.02 48.1099 526.02 55.5484 526.02 62.987C526.02 63.2822 526.02 63.5754 526.02 63.8522H528.636C528.636 63.5693 528.636 63.3191 528.636 63.069C528.636 55.6058 528.638 48.1407 528.636 40.6775C528.634 36.4416 525.872 33.6942 521.614 33.6901C515.658 33.686 509.701 33.6901 503.745 33.6901H502.833L502.835 33.688ZM498.027 31.1128C498.048 30.9324 498.058 30.9057 498.052 30.8811C496.05 23.5226 494.06 16.1619 492.036 8.80952C491.681 7.51782 490.826 6.57878 489.6 6.00674C488.63 5.55362 487.63 5.4142 486.674 5.68279C487.164 7.56088 487.646 9.3549 488.099 11.1571C489.61 17.1932 491.119 23.2314 492.606 29.2757C492.749 29.856 492.993 30.0836 493.604 30.1779C494.685 30.3439 495.737 30.6781 496.807 30.9221C497.195 31.0103 497.594 31.0452 498.029 31.1108L498.027 31.1128ZM523.338 46.81C523.377 46.6398 523.4 46.5906 523.4 46.5414C523.404 44.5998 523.408 42.6602 523.406 40.7185C523.406 39.3571 522.992 38.9389 521.62 38.9368C517.558 38.9327 513.499 38.9348 509.437 38.9368C509.222 38.9368 509.006 38.9676 508.726 38.9901C508.828 39.1603 508.871 39.2505 508.933 39.3284C510.581 41.4361 511.869 43.7468 512.748 46.2728C512.91 46.7382 513.164 46.8203 513.593 46.8162C516.018 46.8018 518.446 46.81 520.872 46.81C521.684 46.81 522.495 46.81 523.336 46.81H523.338ZM513.695 59.8377H523.355V49.4836H513.695C514.411 52.965 514.399 56.3911 513.695 59.8377ZM527.34 66.4561C524.449 66.452 522.112 68.7709 522.1 71.6577C522.087 74.5343 524.429 76.9086 527.293 76.9209C530.198 76.9352 532.585 74.563 532.583 71.6639C532.583 68.7955 530.231 66.4602 527.34 66.4561ZM487.361 29.7699H490.018C489.955 29.4787 489.912 29.2532 489.857 29.0338C488.151 22.2001 486.394 15.3787 484.764 8.52657C484.054 5.54542 481.994 4.48336 478.955 5.00824V7.47271C481.522 7.7003 481.92 8.0345 482.535 10.4846C483.429 14.0481 484.312 17.6156 485.202 21.1811C485.92 24.0495 486.642 26.9158 487.359 29.7719L487.361 29.7699ZM476.228 3.57302C473.891 3.57302 471.598 3.56687 469.308 3.57507C467.998 3.57917 467.116 4.36034 467.094 5.50646C467.071 6.66899 467.969 7.50142 469.316 7.51372C471.154 7.53217 472.993 7.51782 474.83 7.51782C475.281 7.51782 475.734 7.51782 476.228 7.51782V3.57302ZM531.279 61.2073C531.947 61.2073 532.53 61.2073 533.112 61.2073C535.049 61.2073 536.989 61.2217 538.927 61.1991C539.997 61.1868 540.647 60.4159 540.374 59.5404C540.149 58.8187 539.599 58.5788 538.896 58.5809C536.524 58.5809 534.151 58.5809 531.779 58.585C531.615 58.585 531.449 58.6465 531.279 58.6793V61.2094V61.2073Z" fill="white"/>
<path d="M508.99 54.6833C509.009 65.4741 500.178 74.3068 489.367 74.3089C478.555 74.3089 469.729 65.513 469.704 54.7058C469.68 43.8843 478.467 35.0392 489.264 35.0208C500.188 35.0023 508.972 43.7572 508.99 54.6853V54.6833ZM506.376 54.6997C506.401 45.4241 498.841 37.6841 489.711 37.6349C479.98 37.5837 472.368 45.0817 472.324 54.7591C472.283 63.963 480.03 71.6886 489.305 71.6906C498.7 71.6947 506.349 64.0778 506.376 54.6997Z" fill="white"/>
<path d="M489.383 49.4324C492.312 49.4508 494.596 51.7759 494.578 54.7201C494.56 57.5885 492.206 59.9054 489.327 59.889C486.426 59.8726 484.091 57.4942 484.119 54.5868C484.146 51.7144 486.496 49.4139 489.383 49.4324ZM491.96 54.6771C491.964 53.2008 490.828 52.0547 489.358 52.0527C487.904 52.0506 486.727 53.2254 486.738 54.673C486.748 56.1061 487.958 57.2912 489.395 57.2769C490.808 57.2625 491.956 56.0979 491.96 54.6791V54.6771Z" fill="white"/>
</g>
<g clip-path="url(#clip3_611_2022)">
<path d="M731.942 79.5332C730.8 79.1846 729.613 78.9448 728.528 78.467C726.201 77.4439 724.51 75.7073 723.337 73.452C723.189 73.167 722.921 72.8676 722.634 72.7446C720.13 71.6743 719.322 68.9515 720.874 66.7146C720.932 66.6326 720.985 66.5465 721.036 66.4706C719.591 64.5536 719.591 61.9128 722.275 60.2418C721.213 57.9003 719.747 55.8357 717.955 53.9904C712.753 48.637 710.289 42.2216 711.109 34.8015C711.806 28.4968 714.972 23.41 720.11 19.701C734.179 9.54577 752.796 18.3519 755.193 34.4919C756.15 40.934 754.206 46.7856 750.216 51.9237C749.452 52.9099 748.541 53.7854 747.703 54.7121C746.218 56.3544 745.011 58.1771 744.049 60.2459C745.136 60.8713 745.933 61.7447 746.175 62.9913C746.417 64.2358 746.136 65.3799 745.437 66.2082C745.728 67.217 746.134 68.0904 746.208 68.9884C746.345 70.6533 745.343 72.0229 743.77 72.7015C743.514 72.8123 743.223 73.005 743.104 73.2408C741.312 76.7468 738.499 78.8279 734.597 79.4266C734.527 79.4368 734.462 79.4922 734.396 79.527H731.94L731.942 79.5332ZM733.174 59.8891C735.706 59.8891 738.236 59.8789 740.769 59.8994C741.214 59.9035 741.441 59.7743 741.622 59.352C742.841 56.4959 744.687 54.0868 746.809 51.8253C751.469 46.8594 753.593 40.9381 752.492 34.17C750.436 21.5483 736.426 14.3045 724.899 19.824C712.175 25.9155 709.877 41.5204 719.488 51.774C721.627 54.056 723.497 56.4754 724.725 59.3581C724.907 59.7866 725.145 59.9015 725.582 59.8994C728.114 59.8809 730.644 59.8912 733.176 59.8912L733.174 59.8891ZM733.086 65.1195C736.075 65.1195 739.065 65.1236 742.054 65.1195C743.063 65.1195 743.61 64.6623 743.625 63.8463C743.639 63.0015 743.065 62.5094 742.03 62.5094C736.127 62.5053 730.226 62.5053 724.323 62.5094C723.279 62.5094 722.707 62.9913 722.714 63.834C722.72 64.6725 723.279 65.1215 724.348 65.1215C727.261 65.1256 730.173 65.1215 733.086 65.1215V65.1195ZM733.131 70.3539C734.536 70.3539 735.942 70.3539 737.347 70.3539C738.981 70.3539 740.617 70.3642 742.251 70.3478C743.083 70.3375 743.594 69.8516 743.623 69.1135C743.651 68.3446 743.128 67.8054 742.288 67.7418C742.109 67.7275 741.931 67.7357 741.751 67.7357C736.028 67.7357 730.306 67.7357 724.581 67.7398C724.253 67.7398 723.909 67.7418 723.599 67.8382C722.767 68.0965 722.377 69.1012 722.935 69.7388C723.224 70.071 723.792 70.3191 724.237 70.3252C727.2 70.3765 730.164 70.3519 733.127 70.3519L733.131 70.3539ZM740.256 73.0399H726.074C728.009 75.7606 730.533 77.081 733.738 76.8842C736.488 76.714 738.638 75.4039 740.258 73.0399H740.256Z" fill="white"/>
<path d="M702.362 41.504C701.546 41.504 700.724 41.5717 699.916 41.4897C698.02 41.2969 696.566 39.6751 696.5 37.7663C696.433 35.8226 697.796 33.9937 699.715 33.8113C701.483 33.6431 703.289 33.6452 705.056 33.8092C706.953 33.9835 708.318 35.7652 708.292 37.674C708.265 39.6177 706.811 41.2867 704.886 41.4876C704.054 41.5737 703.205 41.502 702.364 41.502L702.362 41.504ZM702.399 38.9165C703.064 38.9165 703.73 38.9473 704.392 38.9083C705.151 38.8632 705.659 38.324 705.667 37.6371C705.676 36.9605 705.165 36.3598 704.419 36.3331C703.066 36.286 701.708 36.286 700.355 36.3331C699.609 36.3598 699.106 36.9667 699.119 37.6453C699.133 38.3363 699.639 38.8632 700.404 38.9063C701.067 38.9432 701.733 38.9145 702.399 38.9124V38.9165Z" fill="white"/>
<path d="M763.93 41.5039C763.114 41.5039 762.292 41.5716 761.484 41.4896C759.555 41.2928 758.091 39.6423 758.05 37.7006C758.009 35.7672 759.397 33.9752 761.332 33.7989C763.075 33.641 764.857 33.641 766.597 33.805C768.527 33.9875 769.896 35.7938 769.841 37.7375C769.786 39.6812 768.322 41.3071 766.376 41.4978C765.568 41.5757 764.746 41.5101 763.93 41.5101V41.506V41.5039ZM763.938 38.9226C763.938 38.9226 763.938 38.9246 763.938 38.9267C764.551 38.9267 765.166 38.9267 765.779 38.9267C765.831 38.9267 765.882 38.9226 765.933 38.9185C766.696 38.8426 767.204 38.3424 767.221 37.6514C767.237 36.9748 766.733 36.3638 765.989 36.3371C764.635 36.2879 763.278 36.2879 761.925 36.3351C761.174 36.3618 760.668 36.9563 760.674 37.635C760.68 38.3506 761.211 38.8795 762.023 38.9185C762.661 38.9492 763.301 38.9246 763.94 38.9246L763.938 38.9226Z" fill="white"/>
<path d="M765.438 53.6069C765.424 56.8997 762.43 58.8065 759.843 57.5271C758.496 56.8608 757.198 56.0858 755.933 55.2738C754.188 54.1564 753.688 51.8601 754.719 50.0681C755.732 48.311 757.94 47.5708 759.761 48.4873C761.149 49.1844 762.494 49.9799 763.8 50.8226C764.927 51.5505 765.426 52.6822 765.438 53.609V53.6069ZM758.12 50.4433C757.626 50.9108 757.171 51.1978 756.927 51.6099C756.62 52.1287 756.827 52.7171 757.315 53.0246C758.543 53.7956 759.802 54.5214 761.083 55.2C761.6 55.4748 762.237 55.3333 762.498 54.8166C762.707 54.4025 762.826 53.5372 762.613 53.3793C761.214 52.3501 759.715 51.4603 758.12 50.4413V50.4433Z" fill="white"/>
<path d="M737.04 6.87218C737.04 7.71281 737.122 8.56369 737.023 9.39201C736.792 11.3234 735.104 12.7504 733.167 12.7484C731.229 12.7443 729.486 11.3193 729.329 9.38176C729.191 7.68615 729.191 5.95979 729.337 4.26418C729.501 2.33689 731.264 0.938576 733.214 0.957029C735.129 0.975481 736.788 2.37585 737.017 4.27443C737.122 5.12736 737.036 6.0049 737.036 6.87013H737.04V6.87218ZM734.477 6.85578C734.477 6.85578 734.475 6.85578 734.473 6.85578C734.473 6.19148 734.506 5.52513 734.465 4.86287C734.415 4.09606 733.886 3.59373 733.198 3.57733C732.482 3.56093 731.902 4.08376 731.877 4.88543C731.838 6.18738 731.84 7.49343 731.877 8.79742C731.9 9.60115 732.472 10.1322 733.181 10.126C733.891 10.1178 734.426 9.58474 734.471 8.77487C734.506 8.13722 734.477 7.49753 734.477 6.85783V6.85578Z" fill="white"/>
<path d="M753.453 9.38795C753.445 9.49866 753.482 9.74675 753.404 9.95383C752.608 12.0657 751.628 14.1078 750.019 15.6968C748.713 16.9864 746.593 16.8962 745.156 15.7624C743.712 14.6244 743.204 12.6561 744.04 11.0118C744.733 9.65039 745.506 8.32178 746.33 7.03419C747.261 5.58257 749.08 5.00233 750.714 5.52311C752.379 6.05209 753.455 7.52216 753.455 9.3859L753.453 9.38795ZM749.305 7.96708C749.139 8.07985 748.682 8.23567 748.479 8.55347C747.739 9.7119 747.056 10.9113 746.404 12.121C746.076 12.73 746.332 13.4476 746.894 13.7879C747.497 14.1529 748.247 14.0299 748.641 13.3943C749.365 12.2235 750.066 11.0364 750.698 9.81441C751.151 8.93893 750.519 7.98348 749.307 7.96708H749.305Z" fill="white"/>
<path d="M704.872 57.9803C703.08 57.9209 701.583 56.824 701.06 55.1324C700.548 53.4655 701.173 51.6592 702.672 50.7161C703.902 49.9431 705.163 49.2111 706.45 48.5386C708.271 47.5852 710.467 48.227 711.545 49.9554C712.605 51.6572 712.269 53.9617 710.627 55.0955C709.247 56.0489 707.74 56.8219 706.26 57.6195C705.85 57.8409 705.337 57.8676 704.87 57.9824L704.872 57.9803ZM709.53 52.2764C709.52 51.0072 708.486 50.4126 707.543 50.9211C706.399 51.5362 705.276 52.1964 704.164 52.8709C703.496 53.2749 703.322 54.0396 703.693 54.6629C704.049 55.2678 704.755 55.4933 705.421 55.1324C706.586 54.5009 707.744 53.851 708.859 53.1354C709.204 52.914 709.395 52.4588 709.532 52.2764H709.53Z" fill="white"/>
<path d="M717.056 5.35281C718.274 5.40407 719.387 5.99661 720.123 7.194C720.857 8.38933 721.571 9.59901 722.227 10.8395C723.231 12.7401 722.541 15.0364 720.705 16.0862C718.897 17.1196 716.609 16.5762 715.465 14.7719C714.686 13.5459 713.939 12.2911 713.287 10.9932C711.963 8.35652 713.946 5.27695 717.058 5.35281H717.056ZM717.093 7.98542C715.774 7.96286 715.178 9.01057 715.713 9.99267C716.31 11.0875 716.943 12.166 717.583 13.2363C718.024 13.9723 718.747 14.1856 719.404 13.8186C720.051 13.4556 720.259 12.6991 719.855 11.9651C719.24 10.8497 718.62 9.73433 717.931 8.66407C717.71 8.31962 717.265 8.12074 717.091 7.98542H717.093Z" fill="white"/>
<path d="M704.867 17.2037C705.531 17.4354 706.233 17.5953 706.852 17.9131C707.963 18.4831 709.033 19.1351 710.106 19.7769C712.086 20.964 712.722 23.2911 711.607 25.202C710.516 27.0739 708.189 27.6829 706.208 26.588C705.025 25.9339 703.844 25.2717 702.7 24.552C701.189 23.6027 700.549 21.8169 701.049 20.148C701.56 18.4462 703.049 17.337 704.867 17.2017V17.2037ZM704.722 19.7522C704.311 20.1275 703.832 20.4001 703.61 20.8123C703.344 21.3064 703.477 21.9235 703.988 22.2413C705.218 23.0061 706.475 23.7381 707.754 24.4147C708.264 24.6853 708.814 24.5172 709.204 24.0579C709.587 23.6027 709.733 22.9897 709.325 22.5858C708.062 21.3392 706.405 20.7159 704.724 19.7522H704.722Z" fill="white"/>
<path d="M765.438 21.659C765.429 22.635 764.861 23.7709 763.678 24.5213C762.452 25.3004 761.191 26.0323 759.904 26.7049C758.03 27.6808 755.754 26.9816 754.716 25.1815C753.656 23.3423 754.22 21.0275 756.057 19.8876C757.249 19.1474 758.462 18.4359 759.705 17.7901C762.339 16.4164 765.419 18.2822 765.44 21.659H765.438ZM762.821 21.5114C762.797 20.2033 761.782 19.6395 760.824 20.1582C759.705 20.7651 758.604 21.4089 757.513 22.067C756.816 22.4874 756.621 23.2009 756.966 23.8365C757.322 24.4946 758.079 24.716 758.811 24.3162C759.928 23.7052 761.046 23.0881 762.114 22.3951C762.475 22.1614 762.682 21.6918 762.821 21.5114Z" fill="white"/>
<path d="M731.856 37.022C731.856 34.5657 731.854 32.1115 731.86 29.6552C731.86 29.3497 731.86 29.0319 731.942 28.7428C732.114 28.1298 732.559 27.812 733.193 27.8181C733.794 27.8243 734.216 28.138 734.392 28.7121C734.474 28.9745 734.48 29.2677 734.48 29.5466C734.485 34.4837 734.485 39.4188 734.485 44.356C734.485 44.4585 734.487 44.561 734.483 44.6635C734.433 45.5923 733.941 46.1254 733.148 46.1131C732.377 46.1008 731.911 45.5923 731.862 44.6943C731.85 44.4892 731.858 44.2842 731.858 44.0812C731.858 41.7275 731.858 39.3758 731.858 37.022H731.856Z" fill="white"/>
<path d="M731.843 50.6647C731.857 50.4105 731.851 50.1542 731.89 49.9041C732.001 49.2008 732.53 48.7375 733.206 48.7785C733.905 48.8215 734.356 49.2008 734.441 49.9041C734.498 50.3818 734.498 50.8718 734.467 51.3537C734.414 52.1676 733.893 52.6761 733.169 52.6761C732.446 52.6761 731.937 52.1656 731.867 51.3557C731.849 51.1281 731.865 50.8964 731.865 50.6688C731.859 50.6688 731.851 50.6688 731.845 50.6688L731.843 50.6647Z" fill="white"/>
</g>
<g clip-path="url(#clip4_611_2022)">
<path d="M933.855 8.71122V11.3766H930.076L932.404 13.7037L935.12 10.9871L937.004 12.8713L934.288 15.588L937.275 18.5753C939.09 16.9699 941.105 15.713 943.237 14.8068C943.309 14.776 943.381 14.7473 943.453 14.7166C943.52 14.6899 943.586 14.6612 943.654 14.6346C946.2 13.6053 948.982 13.0374 951.894 13.0374C954.805 13.0374 957.586 13.6053 960.134 14.6346C960.202 14.6612 960.267 14.6899 960.335 14.7166C960.407 14.7473 960.479 14.776 960.55 14.8068C962.695 15.7171 964.723 16.9842 966.545 18.604L973.742 11.4074H970.037V8.74197H976.959C977.498 8.74197 977.984 9.06592 978.191 9.56415C978.259 9.72817 978.29 9.90245 978.29 10.0747H978.294V17.0703H975.628V13.2916L968.43 20.4903C971.755 24.2403 973.678 28.9417 973.937 33.9526C973.937 33.9608 973.937 33.969 973.937 33.9772C973.945 34.1392 973.951 34.3012 973.955 34.4631C973.955 34.4898 973.957 34.5165 973.957 34.5452C973.961 34.7317 973.963 34.9183 973.963 35.1069C973.963 35.2976 973.961 35.4862 973.957 35.6728C973.957 35.6974 973.955 35.7241 973.955 35.7487C973.951 35.9127 973.945 36.0767 973.937 36.2408C973.937 36.2469 973.937 36.2551 973.937 36.2613C973.658 41.7233 971.398 46.8204 967.503 50.716C967.329 50.8902 967.152 51.0584 966.974 51.2265C965.045 53.0328 962.865 54.4291 960.552 55.4112C960.481 55.4419 960.409 55.4706 960.337 55.5014C960.269 55.5281 960.204 55.5568 960.136 55.5834C958.002 56.4445 955.705 56.9817 953.302 57.1334V65.101H957.153V67.7664H953.302V71.7768H950.637V67.7664H946.735V65.101H950.637V57.1417C948.183 57.0022 945.833 56.4609 943.656 55.5814C943.588 55.5547 943.52 55.526 943.455 55.4993C943.383 55.4686 943.311 55.4399 943.239 55.4091C940.713 54.3348 938.345 52.7704 936.289 50.7139C932.393 46.8183 930.134 41.7212 929.855 36.2592C929.855 36.2531 929.855 36.2449 929.855 36.2387C929.847 36.0747 929.841 35.9107 929.837 35.7466C929.837 35.722 929.835 35.6954 929.835 35.6708C929.83 35.4821 929.828 35.2956 929.828 35.1069C929.828 34.9163 929.83 34.7297 929.835 34.5431C929.835 34.5165 929.837 34.4898 929.837 34.4611C929.841 34.2991 929.847 34.1371 929.855 33.9752C929.855 33.967 929.855 33.9588 929.855 33.9506C930.113 28.9252 932.049 24.2116 935.391 20.4554L932.406 17.4702L929.64 20.236L927.756 18.3518L930.521 15.5859L928.194 13.2588V16.9637H925.529V10.0439C925.529 9.50469 925.853 9.01876 926.351 8.81168C926.515 8.74402 926.689 8.71327 926.862 8.71327V8.70917H933.857M951.894 54.5049C954.367 54.5049 956.839 54.0375 959.164 53.1005C959.191 53.0902 959.218 53.0779 959.246 53.0677C959.484 52.9713 959.72 52.8667 959.956 52.7601C960.044 52.7191 960.132 52.6781 960.218 52.6371C960.39 52.5551 960.563 52.469 960.733 52.3829C966.72 49.3074 970.908 43.2098 971.273 36.1177C971.273 36.1136 971.273 36.1095 971.273 36.1054C971.282 35.964 971.286 35.8204 971.29 35.679C971.29 35.6544 971.292 35.6298 971.292 35.6052C971.296 35.4411 971.298 35.2751 971.298 35.109C971.298 34.9409 971.296 34.7768 971.292 34.6128C971.292 34.5862 971.29 34.5616 971.29 34.5349C971.286 34.3934 971.282 34.254 971.273 34.1125C971.273 34.1064 971.273 34.1002 971.273 34.0941C970.906 27.0041 966.718 20.9085 960.733 17.8331C960.563 17.7449 960.39 17.6608 960.218 17.5788C960.13 17.5378 960.042 17.4968 959.954 17.4558C959.72 17.3492 959.484 17.2467 959.246 17.1483C959.22 17.138 959.191 17.1257 959.164 17.1154C956.837 16.1785 954.367 15.711 951.894 15.711C949.421 15.711 946.948 16.1805 944.623 17.1154C944.597 17.1257 944.568 17.138 944.541 17.1483C944.304 17.2446 944.068 17.3492 943.834 17.4558C943.746 17.4968 943.658 17.5378 943.57 17.5788C943.397 17.6608 943.225 17.7449 943.055 17.8331C937.07 20.9085 932.881 27.0041 932.514 34.0941C932.514 34.1002 932.514 34.1064 932.514 34.1125C932.508 34.252 932.502 34.3934 932.498 34.5349C932.498 34.5616 932.496 34.5862 932.496 34.6128C932.492 34.7768 932.49 34.9409 932.49 35.1049C932.49 35.273 932.492 35.4391 932.496 35.6031C932.496 35.6277 932.496 35.6523 932.498 35.6769C932.502 35.8204 932.506 35.9619 932.514 36.1034C932.514 36.1075 932.514 36.1116 932.514 36.1157C932.879 43.2077 937.068 49.3054 943.055 52.3808C943.225 52.469 943.397 52.553 943.57 52.6351C943.658 52.6761 943.744 52.7171 943.832 52.7581C944.066 52.8647 944.304 52.9693 944.541 53.0656C944.568 53.0759 944.595 53.0882 944.621 53.0984C946.948 54.0354 949.419 54.5029 951.892 54.5029M933.855 6.45587H926.86C926.796 6.45587 926.73 6.45792 926.669 6.46407C926.259 6.48458 925.861 6.57479 925.488 6.72856C924.141 7.28625 923.271 8.5882 923.271 10.0439V16.9658C923.271 18.2124 924.28 19.2211 925.527 19.2211H925.672C925.785 19.4897 925.949 19.7378 926.158 19.9469L928.043 21.8312C928.483 22.272 929.06 22.4914 929.638 22.4914C930.216 22.4914 930.792 22.272 931.233 21.8312L932.084 20.9803C929.386 24.7365 927.846 29.1282 927.602 33.8214C927.602 33.8378 927.602 33.8542 927.6 33.8706C927.591 34.0408 927.585 34.2192 927.579 34.3975V34.4098C927.579 34.4344 927.577 34.4611 927.575 34.4877C927.569 34.6969 927.567 34.904 927.567 35.1069C927.567 35.312 927.569 35.5211 927.575 35.7302C927.575 35.7569 927.575 35.7835 927.577 35.8081V35.8204C927.583 35.9947 927.589 36.1752 927.598 36.3556V36.3822C927.905 42.3876 930.425 48.0465 934.692 52.3132C936.908 54.5296 939.485 56.2703 942.356 57.4902C942.421 57.5189 942.493 57.5476 942.563 57.5763L942.587 57.5866L942.62 57.6009C942.686 57.6276 942.749 57.6542 942.815 57.6809C944.605 58.4046 946.471 58.907 948.38 59.1858V62.8518H946.733C945.487 62.8518 944.478 63.8605 944.478 65.1071V67.7725C944.478 69.0191 945.487 70.0279 946.733 70.0279H948.38V71.7829C948.38 73.0295 949.388 74.0383 950.635 74.0383H953.3C954.547 74.0383 955.556 73.0295 955.556 71.7829V70.0279H957.151C958.397 70.0279 959.406 69.0191 959.406 67.7725V65.1071C959.406 63.8605 958.397 62.8518 957.151 62.8518H955.556V59.1633C957.415 58.8824 959.232 58.3841 960.979 57.6788C961.038 57.6563 961.102 57.6296 961.165 57.603L961.194 57.5907L961.225 57.5784C961.297 57.5497 961.366 57.5189 961.436 57.4902C964.046 56.381 966.426 54.8289 968.512 52.879C968.735 52.6699 968.922 52.4915 969.094 52.3173C973.359 48.0526 975.876 42.3958 976.186 36.3904V36.3658C976.196 36.1793 976.202 36.0009 976.209 35.8204V35.8143C976.209 35.7876 976.211 35.763 976.211 35.7364C976.217 35.5252 976.219 35.3181 976.219 35.1151C976.219 34.9101 976.217 34.701 976.211 34.4959C976.211 34.4693 976.211 34.4426 976.209 34.418V34.4057C976.202 34.2294 976.196 34.051 976.188 33.8727V33.8398C975.938 29.0073 974.312 24.4904 971.46 20.6563L973.765 18.3518C974.17 18.9443 974.853 19.3339 975.626 19.3339H978.292C979.538 19.3339 980.547 18.3251 980.547 17.0785V10.0747C980.547 10.0091 980.545 9.9455 980.539 9.88194C980.518 9.47188 980.428 9.07617 980.274 8.70096C979.717 7.35596 978.415 6.48663 976.959 6.48663H970.037C968.79 6.48663 967.782 7.49538 967.782 8.74197V11.4074C967.782 12.1619 968.153 12.8303 968.721 13.2383L966.388 15.5716C964.854 14.4316 963.193 13.4802 961.432 12.7319C961.368 12.7052 961.301 12.6765 961.233 12.6478L961.2 12.6355L961.163 12.6212C961.1 12.5945 961.036 12.5679 960.971 12.5432C958.082 11.3766 955.027 10.7841 951.892 10.7841C948.757 10.7841 945.7 11.3766 942.807 12.5453C942.747 12.5699 942.684 12.5945 942.62 12.6212L942.592 12.6335L942.553 12.6499C942.485 12.6786 942.417 12.7073 942.35 12.736C940.722 13.4269 939.178 14.2942 937.741 15.3235L938.596 14.4685C939.477 13.5869 939.477 12.1598 938.596 11.2782L936.711 9.39397C936.533 9.21559 936.33 9.07207 936.108 8.9634V8.71327C936.108 7.46668 935.1 6.45792 933.853 6.45792L933.855 6.45587ZM934.766 34.2335V34.211C935.081 28.14 938.651 22.6349 944.086 19.8424C944.246 19.7604 944.396 19.6865 944.535 19.6209C944.617 19.582 944.695 19.5451 944.773 19.5102C944.999 19.4077 945.204 19.3195 945.392 19.2416L945.468 19.2109C947.512 18.3887 949.675 17.9704 951.894 17.9704C954.112 17.9704 956.275 18.3887 958.322 19.2129L958.387 19.2396C958.584 19.3195 958.787 19.4077 959.019 19.5123C959.09 19.5451 959.168 19.582 959.246 19.6189C959.392 19.6886 959.539 19.7603 959.706 19.8465C965.135 22.6369 968.706 28.142 969.02 34.2151C969.02 34.2233 969.02 34.2335 969.02 34.2438C969.026 34.3627 969.03 34.4836 969.034 34.6046V34.6682L969.037 34.6764C969.041 34.824 969.043 34.9675 969.043 35.109C969.043 35.2566 969.043 35.4042 969.037 35.5498V35.5539L969.034 35.6154C969.03 35.7364 969.026 35.8594 969.02 35.9804C969.02 35.9886 969.02 35.9968 969.02 36.005C968.708 42.078 965.137 47.5872 959.701 50.3797C959.542 50.4617 959.392 50.5355 959.25 50.6012C959.168 50.6401 959.09 50.677 959.013 50.7119C958.787 50.8144 958.582 50.9046 958.393 50.9805C958.393 50.9805 958.383 50.9846 958.381 50.9846L958.32 51.0092C956.275 51.8313 954.112 52.2496 951.894 52.2496C949.675 52.2496 947.512 51.8313 945.464 51.0071L945.409 50.9846L945.398 50.9805C945.204 50.9005 944.999 50.8123 944.767 50.7078C944.695 50.675 944.617 50.6381 944.539 50.6012C944.394 50.5314 944.244 50.4576 944.08 50.3736C938.649 47.5831 935.079 42.076 934.766 36.0009C934.766 35.9927 934.766 35.9865 934.766 35.9783C934.759 35.8574 934.755 35.7343 934.751 35.6113V35.5519L934.749 35.5416C934.745 35.4022 934.743 35.2566 934.743 35.109C934.743 34.9614 934.743 34.8158 934.749 34.6702V34.6641L934.751 34.5964C934.755 34.4775 934.759 34.3545 934.766 34.2315V34.2335Z" fill="white"/>
</g>
<defs>
<clipPath id="clip0_611_2022">
<rect width="78.5577" height="78.5905" fill="white" transform="translate(0.450195 0.949829)"/>
</clipPath>
<clipPath id="clip1_611_2022">
<rect width="78.6028" height="78.5823" fill="white" transform="translate(232.439 0.953918)"/>
</clipPath>
<clipPath id="clip2_611_2022">
<rect width="78.5926" height="78.5844" fill="white" transform="translate(464.474 0.952881)"/>
</clipPath>
<clipPath id="clip3_611_2022">
<rect width="73.3438" height="78.5762" fill="white" transform="translate(696.497 0.957031)"/>
</clipPath>
<clipPath id="clip4_611_2022">
<rect width="57.2775" height="67.5783" fill="white" transform="translate(923.272 6.45593)"/>
</clipPath>
</defs>
</svg>
