<svg width="714" height="631" viewBox="0 0 714 631" fill="none" xmlns="http://www.w3.org/2000/svg">
<rect x="608" y="143" width="35" height="35" transform="rotate(-90 608 143)" fill="#00A6CB"/>
<rect x="608" y="193" width="35" height="35" transform="rotate(-90 608 193)" fill="#20AEB6"/>
<rect x="608" y="243" width="35" height="35" transform="rotate(-90 608 243)" fill="#36B4A7"/>
<rect x="608" y="293" width="35" height="35" transform="rotate(-90 608 293)" fill="#49B99B"/>
<rect x="608" y="344" width="36" height="35" transform="rotate(-90 608 344)" fill="#60BF8C"/>
<rect x="608" y="394" width="35" height="35" transform="rotate(-90 608 394)" fill="#76C47D"/>
<rect x="608" y="444" width="35" height="35" transform="rotate(-90 608 444)" fill="#8DCA6E"/>
<rect x="608" y="494" width="35" height="35" transform="rotate(-90 608 494)" fill="#A4D060"/>
<rect x="608" y="544" width="35" height="35" transform="rotate(-90 608 544)" fill="#C4D94B"/>
<path d="M462.5 212L468 206.5L320.5 64.5L329.5 63L323.5 64.5L335.5 63L337 59.5H340.5V57.5H343.5L345 54L286 3L3 299L75.5 367.5L94 348.5L108.5 333L111 334L116.5 340L124.5 343L129 345L132 351.5L136.5 354.5L144 353.5L148 351.5L150 347L157 344L158.5 342H164L166 344.5L180.5 330L192.5 341L218.5 312.5L235.5 328.5L239.5 329L251 322.5L273 305.5L287.5 318.5L309 299L334 323L370.5 286.5L383 299L404.5 277.5L416.5 285L419 281.5L417.5 275.5H423L425.5 284L430.5 279H436.5L434 269.5L438 253.5L434 249L437 246.5H441L445 239.5L448 242.5L461 229L462.5 212Z" fill="#00A6CB" stroke="black" stroke-width="3"/>
<path d="M370.5 286.5L383.5 299L374 308.5L412.5 347L404.5 357L389 372.5L415.5 398L369 448L316.5 461L284.5 490.5L278 503L272.5 531.5L253 548L240 583L235 579.5L233 562L228.5 556L223.5 543V526.5L220 522.5L215.5 520.5L217.5 513.5V508.5L209.5 490.5V484L210.5 478.5L216 469V459L218.5 458L214 455L211.5 449.5V446L202.5 444H197.5L193.5 443L194.5 430L193.5 425L189 421H183.5L188 414.5L189 409L199.5 406.5L202.5 404L185 389L178 397.5L173.5 393L155.5 409L94 348.5L108 333.5L110.5 334L116.5 340L129 345L132 351.5L137 354.5L144 353.5L148 351.5L150 347L157 344L158.5 342.5H164L166 344L180.5 330L192.5 341L218.5 312.5L235.5 328L240 329L251 322.5L273 305L287.5 318.5L309 299L334 323L370.5 286.5Z" fill="#76C47D" stroke="black"/>
<path d="M428 379.5L413 395.5L389 372.5L404.5 357L412.5 366L417.5 360L426 367.5L431.5 365.5L442 375L432.5 383.5L428 379.5Z" fill="#60BF8C" stroke="black"/>
<path d="M462.5 212L468.5 206L483.5 220.5L481.5 225.5H479.5V239.5L477.5 247.5V264.5L473 268L464 305.5L465 310.5L460.5 326L430 308L431.5 315.5L427.5 313.5L417.5 275H422.5L426 283.5L430 278.5H436.5L434 269.5L438 253.5L433 248.5L436.5 246.5H441L445 239.5L448 242.5L461 229L462.5 212Z" fill="#36B4A7" stroke="black"/>
<path d="M460.5 326L454 322L436.5 350L433 348.5L428 354L432 357.5L428 362L463 394.5L464.5 390.5L469.5 385.5L471 378H474.5L476 374.5L476.5 372L479 369V366.5H473L471 364.5V360.5L469.5 356.5L467 358H466L465.5 357.5L464 356L462.5 354.5V352.5V350.5L464.5 347L460.5 343V326Z" fill="#C4D94B" stroke="black"/>
<path d="M430 308L454 322L436.5 350L433 348.5L428 354L432 357.5L428 362L432 365.5L426 367.5L417.5 360L412.5 366L404 356.5L412.5 347L431.5 315.5L430 308Z" fill="#AAD792" stroke="black"/>
<path d="M427.5 313.5L431.5 315.5L412.5 347L374 308.5L383 299L404.5 277.5L416.5 285L419 281.5L427.5 313.5Z" fill="#8DCA6E" stroke="black"/>
<path d="M444 425L413 395.5L428 379.5L432.5 383.5L441.5 375L463 394.5L460.5 402.5V408L457.5 411L444 425Z" fill="#49B99B" stroke="black"/>
<path d="M248.5 624L247 629H250L259.5 625.5L269 617.5L271 617L279.5 617.5L292.5 612.5L305.5 604L319 588.5L337 579.5L341.5 575L347 572.5L362.5 557L370.5 551L401.5 513.5V506L403.5 499.5L418 481L446.5 466L457.5 457L462.5 449.5V446L466.5 443L464.5 441L460.5 433L457.5 427V421L460.5 415.5L457.5 411L444 425L415.5 398L369 448L316.5 461L284.5 490.5L278 503L272.5 531.5L253 548L240 583L246 587.5L244.5 589.5V614.5L247 620L248.5 624Z" fill="#20AEB6" stroke="black"/>
<path d="M286 3L3 299L75.5 367.5L94 348.5L155.5 409L173.5 393L178 397.5L185 389L202.5 404L199.5 406.5L189.5 409L188 414L183.5 421.5H189.5L193.5 425L194.5 431L193.5 443L197 444H202.5L211.5 445.5V449.5L214 454.5L218.5 458.5L216 459V460.5V463.5V469L210.5 478.5L209.5 485.5V491L214 501.5L217.5 508.5V513L216 520.5L220 522.5L223.5 527V537.5V543L228.5 555.5L233 561.5L235.5 579.5L238.5 581.5L241.5 584L246 587.5L244.5 589.5V614.5L247 619.5L248.5 624L247 629H250L259 626C261.5 623.667 267 618.7 269 617.5C271 616.3 276.833 617 279.5 617.5L292.5 612.5L305 604.5C308.167 601.5 315.2 594.3 318 589.5C320.8 584.7 319.833 586.833 319 588.5L326.5 584L337 579.5L341.5 575L347 572.5L355.5 564.5L362.5 557L370.5 551L377 543L387 530.5L401.5 513V506L403.5 500L408 493.5L413.5 486L418 481L424 477.5L432.5 473.5L446.5 466L457.5 457L462.5 449.5V446L466.5 443L464.5 440.5L460.5 433.5L457.5 427V421L460.5 415.5L457.5 411L460.5 408V402.5L462.5 397L464.5 391L469.5 386L471 378H474L476 375V372.5L478.5 369.5V366.5H473L471 364.5V360.5L469.5 357L466.5 358.5L464.5 357L462.5 353V351L464.5 347L460.5 343V333V325L462.5 318.5L464.5 310.5V306L466.5 294.5L469.5 280L472.5 268.5L477 264.5V247.5L479.5 239.5V225.5H481.5L483 220L321.5 64.5H324.5L329.5 63H335.5L337 60H340.5V57.5H343.5L345 54L286 3Z" stroke="black" stroke-width="3"/>
<path d="M660.035 129H649.82V127.379L657.018 116.725H650.016V114.723H659.84V116.363L652.613 126.998H660.035V129ZM671.9 123.58C671.9 125.344 671.448 126.721 670.543 127.711C669.638 128.701 668.378 129.195 666.764 129.195C665.755 129.195 664.863 128.967 664.088 128.512C663.313 128.056 662.717 127.402 662.301 126.549C661.884 125.696 661.676 124.706 661.676 123.58C661.676 121.829 662.125 120.462 663.023 119.479C663.922 118.495 665.188 118.004 666.822 118.004C668.385 118.004 669.622 118.508 670.533 119.518C671.445 120.52 671.9 121.874 671.9 123.58ZM664.039 123.58C664.039 126.074 664.96 127.32 666.803 127.32C668.626 127.32 669.537 126.074 669.537 123.58C669.537 121.113 668.619 119.879 666.783 119.879C665.82 119.879 665.12 120.198 664.684 120.836C664.254 121.474 664.039 122.389 664.039 123.58ZM684.049 129H681.744V122.359C681.744 121.526 681.575 120.904 681.236 120.494C680.904 120.084 680.374 119.879 679.645 119.879C678.674 119.879 677.965 120.165 677.516 120.738C677.066 121.311 676.842 122.271 676.842 123.619V129H674.547V118.199H676.344L676.666 119.615H676.783C677.109 119.101 677.571 118.704 678.17 118.424C678.769 118.144 679.433 118.004 680.162 118.004C682.753 118.004 684.049 119.322 684.049 121.959V129ZM694 129L693.541 127.496H693.463C692.942 128.154 692.418 128.603 691.891 128.844C691.363 129.078 690.686 129.195 689.859 129.195C688.798 129.195 687.968 128.909 687.369 128.336C686.777 127.763 686.48 126.952 686.48 125.904C686.48 124.791 686.894 123.951 687.721 123.385C688.548 122.818 689.807 122.509 691.5 122.457L693.365 122.398V121.822C693.365 121.132 693.202 120.618 692.877 120.279C692.558 119.934 692.06 119.762 691.383 119.762C690.829 119.762 690.299 119.843 689.791 120.006C689.283 120.169 688.795 120.361 688.326 120.582L687.584 118.941C688.17 118.635 688.811 118.404 689.508 118.248C690.204 118.085 690.862 118.004 691.48 118.004C692.854 118.004 693.889 118.303 694.586 118.902C695.289 119.501 695.641 120.442 695.641 121.725V129H694ZM690.582 127.438C691.415 127.438 692.083 127.206 692.584 126.744C693.092 126.275 693.346 125.621 693.346 124.781V123.844L691.959 123.902C690.878 123.941 690.09 124.124 689.596 124.449C689.107 124.768 688.863 125.26 688.863 125.924C688.863 126.406 689.007 126.78 689.293 127.047C689.579 127.307 690.009 127.438 690.582 127.438ZM712.936 120.816C712.936 123.629 712.369 125.729 711.236 127.115C710.104 128.502 708.398 129.195 706.119 129.195C705.253 129.195 704.632 129.143 704.254 129.039V127.115C704.833 127.278 705.416 127.359 706.002 127.359C707.551 127.359 708.707 126.943 709.469 126.109C710.23 125.276 710.647 123.967 710.719 122.184H710.602C710.217 122.77 709.752 123.193 709.205 123.453C708.665 123.714 708.03 123.844 707.301 123.844C706.038 123.844 705.045 123.45 704.322 122.662C703.6 121.874 703.238 120.794 703.238 119.42C703.238 117.929 703.655 116.744 704.488 115.865C705.328 114.98 706.471 114.537 707.916 114.537C708.932 114.537 709.817 114.785 710.572 115.279C711.327 115.774 711.91 116.493 712.32 117.438C712.73 118.375 712.936 119.501 712.936 120.816ZM707.955 116.441C707.161 116.441 706.552 116.702 706.129 117.223C705.706 117.737 705.494 118.463 705.494 119.4C705.494 120.214 705.689 120.855 706.08 121.324C706.477 121.786 707.076 122.018 707.877 122.018C708.652 122.018 709.303 121.786 709.83 121.324C710.357 120.862 710.621 120.322 710.621 119.703C710.621 119.124 710.507 118.583 710.279 118.082C710.058 117.574 709.745 117.174 709.342 116.881C708.938 116.588 708.476 116.441 707.955 116.441Z" fill="black"/>
<path d="M660.035 180H649.82V178.379L657.018 167.725H650.016V165.723H659.84V167.363L652.613 177.998H660.035V180ZM671.9 174.58C671.9 176.344 671.448 177.721 670.543 178.711C669.638 179.701 668.378 180.195 666.764 180.195C665.755 180.195 664.863 179.967 664.088 179.512C663.313 179.056 662.717 178.402 662.301 177.549C661.884 176.696 661.676 175.706 661.676 174.58C661.676 172.829 662.125 171.462 663.023 170.479C663.922 169.495 665.188 169.004 666.822 169.004C668.385 169.004 669.622 169.508 670.533 170.518C671.445 171.52 671.9 172.874 671.9 174.58ZM664.039 174.58C664.039 177.074 664.96 178.32 666.803 178.32C668.626 178.32 669.537 177.074 669.537 174.58C669.537 172.113 668.619 170.879 666.783 170.879C665.82 170.879 665.12 171.198 664.684 171.836C664.254 172.474 664.039 173.389 664.039 174.58ZM684.049 180H681.744V173.359C681.744 172.526 681.575 171.904 681.236 171.494C680.904 171.084 680.374 170.879 679.645 170.879C678.674 170.879 677.965 171.165 677.516 171.738C677.066 172.311 676.842 173.271 676.842 174.619V180H674.547V169.199H676.344L676.666 170.615H676.783C677.109 170.101 677.571 169.704 678.17 169.424C678.769 169.144 679.433 169.004 680.162 169.004C682.753 169.004 684.049 170.322 684.049 172.959V180ZM694 180L693.541 178.496H693.463C692.942 179.154 692.418 179.603 691.891 179.844C691.363 180.078 690.686 180.195 689.859 180.195C688.798 180.195 687.968 179.909 687.369 179.336C686.777 178.763 686.48 177.952 686.48 176.904C686.48 175.791 686.894 174.951 687.721 174.385C688.548 173.818 689.807 173.509 691.5 173.457L693.365 173.398V172.822C693.365 172.132 693.202 171.618 692.877 171.279C692.558 170.934 692.06 170.762 691.383 170.762C690.829 170.762 690.299 170.843 689.791 171.006C689.283 171.169 688.795 171.361 688.326 171.582L687.584 169.941C688.17 169.635 688.811 169.404 689.508 169.248C690.204 169.085 690.862 169.004 691.48 169.004C692.854 169.004 693.889 169.303 694.586 169.902C695.289 170.501 695.641 171.442 695.641 172.725V180H694ZM690.582 178.438C691.415 178.438 692.083 178.206 692.584 177.744C693.092 177.275 693.346 176.621 693.346 175.781V174.844L691.959 174.902C690.878 174.941 690.09 175.124 689.596 175.449C689.107 175.768 688.863 176.26 688.863 176.924C688.863 177.406 689.007 177.78 689.293 178.047C689.579 178.307 690.009 178.438 690.582 178.438ZM708.102 165.537C709.456 165.537 710.527 165.85 711.314 166.475C712.102 167.093 712.496 167.923 712.496 168.965C712.496 170.43 711.617 171.595 709.859 172.461C710.979 173.021 711.773 173.61 712.242 174.229C712.717 174.847 712.955 175.537 712.955 176.299C712.955 177.477 712.522 178.421 711.656 179.131C710.79 179.84 709.618 180.195 708.141 180.195C706.591 180.195 705.39 179.863 704.537 179.199C703.684 178.535 703.258 177.594 703.258 176.377C703.258 175.583 703.479 174.87 703.922 174.238C704.371 173.6 705.104 173.034 706.119 172.539C705.247 172.018 704.625 171.468 704.254 170.889C703.883 170.309 703.697 169.658 703.697 168.936C703.697 167.9 704.104 167.077 704.918 166.465C705.732 165.846 706.793 165.537 708.102 165.537ZM705.455 176.299C705.455 176.976 705.693 177.503 706.168 177.881C706.643 178.252 707.288 178.438 708.102 178.438C708.941 178.438 709.592 178.245 710.055 177.861C710.523 177.471 710.758 176.943 710.758 176.279C710.758 175.752 710.543 175.27 710.113 174.834C709.684 174.398 709.033 173.994 708.16 173.623L707.877 173.496C707.018 173.874 706.399 174.29 706.021 174.746C705.644 175.195 705.455 175.713 705.455 176.299ZM708.082 167.305C707.431 167.305 706.907 167.467 706.51 167.793C706.113 168.112 705.914 168.548 705.914 169.102C705.914 169.44 705.986 169.743 706.129 170.01C706.272 170.277 706.48 170.521 706.754 170.742C707.027 170.957 707.49 171.217 708.141 171.523C708.922 171.178 709.472 170.817 709.791 170.439C710.117 170.055 710.279 169.609 710.279 169.102C710.279 168.548 710.077 168.112 709.674 167.793C709.277 167.467 708.746 167.305 708.082 167.305Z" fill="black"/>
<path d="M660.035 231H649.82V229.379L657.018 218.725H650.016V216.723H659.84V218.363L652.613 228.998H660.035V231ZM671.9 225.58C671.9 227.344 671.448 228.721 670.543 229.711C669.638 230.701 668.378 231.195 666.764 231.195C665.755 231.195 664.863 230.967 664.088 230.512C663.313 230.056 662.717 229.402 662.301 228.549C661.884 227.696 661.676 226.706 661.676 225.58C661.676 223.829 662.125 222.462 663.023 221.479C663.922 220.495 665.188 220.004 666.822 220.004C668.385 220.004 669.622 220.508 670.533 221.518C671.445 222.52 671.9 223.874 671.9 225.58ZM664.039 225.58C664.039 228.074 664.96 229.32 666.803 229.32C668.626 229.32 669.537 228.074 669.537 225.58C669.537 223.113 668.619 221.879 666.783 221.879C665.82 221.879 665.12 222.198 664.684 222.836C664.254 223.474 664.039 224.389 664.039 225.58ZM684.049 231H681.744V224.359C681.744 223.526 681.575 222.904 681.236 222.494C680.904 222.084 680.374 221.879 679.645 221.879C678.674 221.879 677.965 222.165 677.516 222.738C677.066 223.311 676.842 224.271 676.842 225.619V231H674.547V220.199H676.344L676.666 221.615H676.783C677.109 221.101 677.571 220.704 678.17 220.424C678.769 220.144 679.433 220.004 680.162 220.004C682.753 220.004 684.049 221.322 684.049 223.959V231ZM694 231L693.541 229.496H693.463C692.942 230.154 692.418 230.603 691.891 230.844C691.363 231.078 690.686 231.195 689.859 231.195C688.798 231.195 687.968 230.909 687.369 230.336C686.777 229.763 686.48 228.952 686.48 227.904C686.48 226.791 686.894 225.951 687.721 225.385C688.548 224.818 689.807 224.509 691.5 224.457L693.365 224.398V223.822C693.365 223.132 693.202 222.618 692.877 222.279C692.558 221.934 692.06 221.762 691.383 221.762C690.829 221.762 690.299 221.843 689.791 222.006C689.283 222.169 688.795 222.361 688.326 222.582L687.584 220.941C688.17 220.635 688.811 220.404 689.508 220.248C690.204 220.085 690.862 220.004 691.48 220.004C692.854 220.004 693.889 220.303 694.586 220.902C695.289 221.501 695.641 222.442 695.641 223.725V231H694ZM690.582 229.438C691.415 229.438 692.083 229.206 692.584 228.744C693.092 228.275 693.346 227.621 693.346 226.781V225.844L691.959 225.902C690.878 225.941 690.09 226.124 689.596 226.449C689.107 226.768 688.863 227.26 688.863 227.924C688.863 228.406 689.007 228.78 689.293 229.047C689.579 229.307 690.009 229.438 690.582 229.438ZM704.898 231L710.543 218.764H703.121V216.742H712.994V218.344L707.379 231H704.898Z" fill="black"/>
<path d="M660.035 282H649.82V280.379L657.018 269.725H650.016V267.723H659.84V269.363L652.613 279.998H660.035V282ZM671.9 276.58C671.9 278.344 671.448 279.721 670.543 280.711C669.638 281.701 668.378 282.195 666.764 282.195C665.755 282.195 664.863 281.967 664.088 281.512C663.313 281.056 662.717 280.402 662.301 279.549C661.884 278.696 661.676 277.706 661.676 276.58C661.676 274.829 662.125 273.462 663.023 272.479C663.922 271.495 665.188 271.004 666.822 271.004C668.385 271.004 669.622 271.508 670.533 272.518C671.445 273.52 671.9 274.874 671.9 276.58ZM664.039 276.58C664.039 279.074 664.96 280.32 666.803 280.32C668.626 280.32 669.537 279.074 669.537 276.58C669.537 274.113 668.619 272.879 666.783 272.879C665.82 272.879 665.12 273.198 664.684 273.836C664.254 274.474 664.039 275.389 664.039 276.58ZM684.049 282H681.744V275.359C681.744 274.526 681.575 273.904 681.236 273.494C680.904 273.084 680.374 272.879 679.645 272.879C678.674 272.879 677.965 273.165 677.516 273.738C677.066 274.311 676.842 275.271 676.842 276.619V282H674.547V271.199H676.344L676.666 272.615H676.783C677.109 272.101 677.571 271.704 678.17 271.424C678.769 271.144 679.433 271.004 680.162 271.004C682.753 271.004 684.049 272.322 684.049 274.959V282ZM694 282L693.541 280.496H693.463C692.942 281.154 692.418 281.603 691.891 281.844C691.363 282.078 690.686 282.195 689.859 282.195C688.798 282.195 687.968 281.909 687.369 281.336C686.777 280.763 686.48 279.952 686.48 278.904C686.48 277.791 686.894 276.951 687.721 276.385C688.548 275.818 689.807 275.509 691.5 275.457L693.365 275.398V274.822C693.365 274.132 693.202 273.618 692.877 273.279C692.558 272.934 692.06 272.762 691.383 272.762C690.829 272.762 690.299 272.843 689.791 273.006C689.283 273.169 688.795 273.361 688.326 273.582L687.584 271.941C688.17 271.635 688.811 271.404 689.508 271.248C690.204 271.085 690.862 271.004 691.48 271.004C692.854 271.004 693.889 271.303 694.586 271.902C695.289 272.501 695.641 273.442 695.641 274.725V282H694ZM690.582 280.438C691.415 280.438 692.083 280.206 692.584 279.744C693.092 279.275 693.346 278.621 693.346 277.781V276.844L691.959 276.902C690.878 276.941 690.09 277.124 689.596 277.449C689.107 277.768 688.863 278.26 688.863 278.924C688.863 279.406 689.007 279.78 689.293 280.047C689.579 280.307 690.009 280.438 690.582 280.438ZM703.316 275.916C703.316 270.33 705.592 267.537 710.143 267.537C710.859 267.537 711.464 267.592 711.959 267.703V269.617C711.464 269.474 710.891 269.402 710.24 269.402C708.71 269.402 707.561 269.812 706.793 270.633C706.025 271.453 705.608 272.768 705.543 274.578H705.66C705.966 274.051 706.396 273.644 706.949 273.357C707.503 273.064 708.154 272.918 708.902 272.918C710.198 272.918 711.207 273.315 711.93 274.109C712.652 274.904 713.014 275.981 713.014 277.342C713.014 278.839 712.594 280.024 711.754 280.896C710.921 281.762 709.781 282.195 708.336 282.195C707.314 282.195 706.425 281.951 705.67 281.463C704.915 280.968 704.332 280.252 703.922 279.314C703.518 278.37 703.316 277.238 703.316 275.916ZM708.297 280.301C709.085 280.301 709.69 280.047 710.113 279.539C710.543 279.031 710.758 278.305 710.758 277.361C710.758 276.541 710.556 275.896 710.152 275.428C709.755 274.959 709.156 274.725 708.355 274.725C707.861 274.725 707.405 274.832 706.988 275.047C706.572 275.255 706.243 275.545 706.002 275.916C705.761 276.281 705.641 276.655 705.641 277.039C705.641 277.957 705.888 278.732 706.383 279.363C706.884 279.988 707.522 280.301 708.297 280.301Z" fill="black"/>
<path d="M660.035 333H649.82V331.379L657.018 320.725H650.016V318.723H659.84V320.363L652.613 330.998H660.035V333ZM671.9 327.58C671.9 329.344 671.448 330.721 670.543 331.711C669.638 332.701 668.378 333.195 666.764 333.195C665.755 333.195 664.863 332.967 664.088 332.512C663.313 332.056 662.717 331.402 662.301 330.549C661.884 329.696 661.676 328.706 661.676 327.58C661.676 325.829 662.125 324.462 663.023 323.479C663.922 322.495 665.188 322.004 666.822 322.004C668.385 322.004 669.622 322.508 670.533 323.518C671.445 324.52 671.9 325.874 671.9 327.58ZM664.039 327.58C664.039 330.074 664.96 331.32 666.803 331.32C668.626 331.32 669.537 330.074 669.537 327.58C669.537 325.113 668.619 323.879 666.783 323.879C665.82 323.879 665.12 324.198 664.684 324.836C664.254 325.474 664.039 326.389 664.039 327.58ZM684.049 333H681.744V326.359C681.744 325.526 681.575 324.904 681.236 324.494C680.904 324.084 680.374 323.879 679.645 323.879C678.674 323.879 677.965 324.165 677.516 324.738C677.066 325.311 676.842 326.271 676.842 327.619V333H674.547V322.199H676.344L676.666 323.615H676.783C677.109 323.101 677.571 322.704 678.17 322.424C678.769 322.144 679.433 322.004 680.162 322.004C682.753 322.004 684.049 323.322 684.049 325.959V333ZM694 333L693.541 331.496H693.463C692.942 332.154 692.418 332.603 691.891 332.844C691.363 333.078 690.686 333.195 689.859 333.195C688.798 333.195 687.968 332.909 687.369 332.336C686.777 331.763 686.48 330.952 686.48 329.904C686.48 328.791 686.894 327.951 687.721 327.385C688.548 326.818 689.807 326.509 691.5 326.457L693.365 326.398V325.822C693.365 325.132 693.202 324.618 692.877 324.279C692.558 323.934 692.06 323.762 691.383 323.762C690.829 323.762 690.299 323.843 689.791 324.006C689.283 324.169 688.795 324.361 688.326 324.582L687.584 322.941C688.17 322.635 688.811 322.404 689.508 322.248C690.204 322.085 690.862 322.004 691.48 322.004C692.854 322.004 693.889 322.303 694.586 322.902C695.289 323.501 695.641 324.442 695.641 325.725V333H694ZM690.582 331.438C691.415 331.438 692.083 331.206 692.584 330.744C693.092 330.275 693.346 329.621 693.346 328.781V327.844L691.959 327.902C690.878 327.941 690.09 328.124 689.596 328.449C689.107 328.768 688.863 329.26 688.863 329.924C688.863 330.406 689.007 330.78 689.293 331.047C689.579 331.307 690.009 331.438 690.582 331.438ZM708.121 324.084C709.56 324.084 710.699 324.465 711.539 325.227C712.379 325.988 712.799 327.027 712.799 328.342C712.799 329.865 712.32 331.057 711.363 331.916C710.413 332.769 709.059 333.195 707.301 333.195C705.706 333.195 704.452 332.938 703.541 332.424V330.344C704.068 330.643 704.674 330.874 705.357 331.037C706.041 331.2 706.676 331.281 707.262 331.281C708.297 331.281 709.085 331.05 709.625 330.588C710.165 330.126 710.436 329.449 710.436 328.557C710.436 326.851 709.348 325.998 707.174 325.998C706.868 325.998 706.49 326.031 706.041 326.096C705.592 326.154 705.198 326.223 704.859 326.301L703.834 325.695L704.381 318.723H711.803V320.764H706.402L706.08 324.299C706.308 324.26 706.585 324.214 706.91 324.162C707.242 324.11 707.646 324.084 708.121 324.084Z" fill="black"/>
<path d="M660.035 384H649.82V382.379L657.018 371.725H650.016V369.723H659.84V371.363L652.613 381.998H660.035V384ZM671.9 378.58C671.9 380.344 671.448 381.721 670.543 382.711C669.638 383.701 668.378 384.195 666.764 384.195C665.755 384.195 664.863 383.967 664.088 383.512C663.313 383.056 662.717 382.402 662.301 381.549C661.884 380.696 661.676 379.706 661.676 378.58C661.676 376.829 662.125 375.462 663.023 374.479C663.922 373.495 665.188 373.004 666.822 373.004C668.385 373.004 669.622 373.508 670.533 374.518C671.445 375.52 671.9 376.874 671.9 378.58ZM664.039 378.58C664.039 381.074 664.96 382.32 666.803 382.32C668.626 382.32 669.537 381.074 669.537 378.58C669.537 376.113 668.619 374.879 666.783 374.879C665.82 374.879 665.12 375.198 664.684 375.836C664.254 376.474 664.039 377.389 664.039 378.58ZM684.049 384H681.744V377.359C681.744 376.526 681.575 375.904 681.236 375.494C680.904 375.084 680.374 374.879 679.645 374.879C678.674 374.879 677.965 375.165 677.516 375.738C677.066 376.311 676.842 377.271 676.842 378.619V384H674.547V373.199H676.344L676.666 374.615H676.783C677.109 374.101 677.571 373.704 678.17 373.424C678.769 373.144 679.433 373.004 680.162 373.004C682.753 373.004 684.049 374.322 684.049 376.959V384ZM694 384L693.541 382.496H693.463C692.942 383.154 692.418 383.603 691.891 383.844C691.363 384.078 690.686 384.195 689.859 384.195C688.798 384.195 687.968 383.909 687.369 383.336C686.777 382.763 686.48 381.952 686.48 380.904C686.48 379.791 686.894 378.951 687.721 378.385C688.548 377.818 689.807 377.509 691.5 377.457L693.365 377.398V376.822C693.365 376.132 693.202 375.618 692.877 375.279C692.558 374.934 692.06 374.762 691.383 374.762C690.829 374.762 690.299 374.843 689.791 375.006C689.283 375.169 688.795 375.361 688.326 375.582L687.584 373.941C688.17 373.635 688.811 373.404 689.508 373.248C690.204 373.085 690.862 373.004 691.48 373.004C692.854 373.004 693.889 373.303 694.586 373.902C695.289 374.501 695.641 375.442 695.641 376.725V384H694ZM690.582 382.438C691.415 382.438 692.083 382.206 692.584 381.744C693.092 381.275 693.346 380.621 693.346 379.781V378.844L691.959 378.902C690.878 378.941 690.09 379.124 689.596 379.449C689.107 379.768 688.863 380.26 688.863 380.924C688.863 381.406 689.007 381.78 689.293 382.047C689.579 382.307 690.009 382.438 690.582 382.438ZM713.463 380.885H711.539V384H709.303V380.885H702.779V379.117L709.303 369.684H711.539V378.98H713.463V380.885ZM709.303 378.98V375.396C709.303 374.12 709.335 373.076 709.4 372.262H709.322C709.14 372.691 708.854 373.212 708.463 373.824L704.918 378.98H709.303Z" fill="black"/>
<path d="M660.035 435H649.82V433.379L657.018 422.725H650.016V420.723H659.84V422.363L652.613 432.998H660.035V435ZM671.9 429.58C671.9 431.344 671.448 432.721 670.543 433.711C669.638 434.701 668.378 435.195 666.764 435.195C665.755 435.195 664.863 434.967 664.088 434.512C663.313 434.056 662.717 433.402 662.301 432.549C661.884 431.696 661.676 430.706 661.676 429.58C661.676 427.829 662.125 426.462 663.023 425.479C663.922 424.495 665.188 424.004 666.822 424.004C668.385 424.004 669.622 424.508 670.533 425.518C671.445 426.52 671.9 427.874 671.9 429.58ZM664.039 429.58C664.039 432.074 664.96 433.32 666.803 433.32C668.626 433.32 669.537 432.074 669.537 429.58C669.537 427.113 668.619 425.879 666.783 425.879C665.82 425.879 665.12 426.198 664.684 426.836C664.254 427.474 664.039 428.389 664.039 429.58ZM684.049 435H681.744V428.359C681.744 427.526 681.575 426.904 681.236 426.494C680.904 426.084 680.374 425.879 679.645 425.879C678.674 425.879 677.965 426.165 677.516 426.738C677.066 427.311 676.842 428.271 676.842 429.619V435H674.547V424.199H676.344L676.666 425.615H676.783C677.109 425.101 677.571 424.704 678.17 424.424C678.769 424.144 679.433 424.004 680.162 424.004C682.753 424.004 684.049 425.322 684.049 427.959V435ZM694 435L693.541 433.496H693.463C692.942 434.154 692.418 434.603 691.891 434.844C691.363 435.078 690.686 435.195 689.859 435.195C688.798 435.195 687.968 434.909 687.369 434.336C686.777 433.763 686.48 432.952 686.48 431.904C686.48 430.791 686.894 429.951 687.721 429.385C688.548 428.818 689.807 428.509 691.5 428.457L693.365 428.398V427.822C693.365 427.132 693.202 426.618 692.877 426.279C692.558 425.934 692.06 425.762 691.383 425.762C690.829 425.762 690.299 425.843 689.791 426.006C689.283 426.169 688.795 426.361 688.326 426.582L687.584 424.941C688.17 424.635 688.811 424.404 689.508 424.248C690.204 424.085 690.862 424.004 691.48 424.004C692.854 424.004 693.889 424.303 694.586 424.902C695.289 425.501 695.641 426.442 695.641 427.725V435H694ZM690.582 433.438C691.415 433.438 692.083 433.206 692.584 432.744C693.092 432.275 693.346 431.621 693.346 430.781V429.844L691.959 429.902C690.878 429.941 690.09 430.124 689.596 430.449C689.107 430.768 688.863 431.26 688.863 431.924C688.863 432.406 689.007 432.78 689.293 433.047C689.579 433.307 690.009 433.438 690.582 433.438ZM712.418 424.004C712.418 424.909 712.154 425.664 711.627 426.27C711.1 426.868 710.357 427.272 709.4 427.48V427.559C710.546 427.702 711.406 428.06 711.979 428.633C712.551 429.199 712.838 429.954 712.838 430.898C712.838 432.272 712.353 433.333 711.383 434.082C710.413 434.824 709.033 435.195 707.242 435.195C705.66 435.195 704.326 434.938 703.238 434.424V432.383C703.844 432.682 704.485 432.913 705.162 433.076C705.839 433.239 706.49 433.32 707.115 433.32C708.222 433.32 709.049 433.115 709.596 432.705C710.143 432.295 710.416 431.66 710.416 430.801C710.416 430.039 710.113 429.479 709.508 429.121C708.902 428.763 707.952 428.584 706.656 428.584H705.416V426.719H706.676C708.954 426.719 710.094 425.931 710.094 424.355C710.094 423.743 709.895 423.271 709.498 422.939C709.101 422.607 708.515 422.441 707.74 422.441C707.2 422.441 706.679 422.52 706.178 422.676C705.676 422.826 705.084 423.122 704.4 423.564L703.277 421.963C704.586 420.999 706.106 420.518 707.838 420.518C709.277 420.518 710.4 420.827 711.207 421.445C712.014 422.064 712.418 422.917 712.418 424.004Z" fill="black"/>
<path d="M660.035 486H649.82V484.379L657.018 473.725H650.016V471.723H659.84V473.363L652.613 483.998H660.035V486ZM671.9 480.58C671.9 482.344 671.448 483.721 670.543 484.711C669.638 485.701 668.378 486.195 666.764 486.195C665.755 486.195 664.863 485.967 664.088 485.512C663.313 485.056 662.717 484.402 662.301 483.549C661.884 482.696 661.676 481.706 661.676 480.58C661.676 478.829 662.125 477.462 663.023 476.479C663.922 475.495 665.188 475.004 666.822 475.004C668.385 475.004 669.622 475.508 670.533 476.518C671.445 477.52 671.9 478.874 671.9 480.58ZM664.039 480.58C664.039 483.074 664.96 484.32 666.803 484.32C668.626 484.32 669.537 483.074 669.537 480.58C669.537 478.113 668.619 476.879 666.783 476.879C665.82 476.879 665.12 477.198 664.684 477.836C664.254 478.474 664.039 479.389 664.039 480.58ZM684.049 486H681.744V479.359C681.744 478.526 681.575 477.904 681.236 477.494C680.904 477.084 680.374 476.879 679.645 476.879C678.674 476.879 677.965 477.165 677.516 477.738C677.066 478.311 676.842 479.271 676.842 480.619V486H674.547V475.199H676.344L676.666 476.615H676.783C677.109 476.101 677.571 475.704 678.17 475.424C678.769 475.144 679.433 475.004 680.162 475.004C682.753 475.004 684.049 476.322 684.049 478.959V486ZM694 486L693.541 484.496H693.463C692.942 485.154 692.418 485.603 691.891 485.844C691.363 486.078 690.686 486.195 689.859 486.195C688.798 486.195 687.968 485.909 687.369 485.336C686.777 484.763 686.48 483.952 686.48 482.904C686.48 481.791 686.894 480.951 687.721 480.385C688.548 479.818 689.807 479.509 691.5 479.457L693.365 479.398V478.822C693.365 478.132 693.202 477.618 692.877 477.279C692.558 476.934 692.06 476.762 691.383 476.762C690.829 476.762 690.299 476.843 689.791 477.006C689.283 477.169 688.795 477.361 688.326 477.582L687.584 475.941C688.17 475.635 688.811 475.404 689.508 475.248C690.204 475.085 690.862 475.004 691.48 475.004C692.854 475.004 693.889 475.303 694.586 475.902C695.289 476.501 695.641 477.442 695.641 478.725V486H694ZM690.582 484.438C691.415 484.438 692.083 484.206 692.584 483.744C693.092 483.275 693.346 482.621 693.346 481.781V480.844L691.959 480.902C690.878 480.941 690.09 481.124 689.596 481.449C689.107 481.768 688.863 482.26 688.863 482.924C688.863 483.406 689.007 483.78 689.293 484.047C689.579 484.307 690.009 484.438 690.582 484.438ZM712.955 486H703.277V484.262L706.959 480.561C708.046 479.447 708.766 478.66 709.117 478.197C709.475 477.729 709.736 477.289 709.898 476.879C710.061 476.469 710.143 476.029 710.143 475.561C710.143 474.916 709.947 474.408 709.557 474.037C709.173 473.666 708.639 473.48 707.955 473.48C707.408 473.48 706.878 473.581 706.363 473.783C705.855 473.985 705.266 474.35 704.596 474.877L703.355 473.363C704.15 472.693 704.921 472.217 705.67 471.938C706.419 471.658 707.216 471.518 708.062 471.518C709.391 471.518 710.455 471.866 711.256 472.562C712.057 473.253 712.457 474.184 712.457 475.355C712.457 476 712.34 476.612 712.105 477.191C711.878 477.771 711.523 478.37 711.041 478.988C710.566 479.6 709.771 480.43 708.658 481.479L706.178 483.881V483.979H712.955V486Z" fill="black"/>
<path d="M660.035 537H649.82V535.379L657.018 524.725H650.016V522.723H659.84V524.363L652.613 534.998H660.035V537ZM671.9 531.58C671.9 533.344 671.448 534.721 670.543 535.711C669.638 536.701 668.378 537.195 666.764 537.195C665.755 537.195 664.863 536.967 664.088 536.512C663.313 536.056 662.717 535.402 662.301 534.549C661.884 533.696 661.676 532.706 661.676 531.58C661.676 529.829 662.125 528.462 663.023 527.479C663.922 526.495 665.188 526.004 666.822 526.004C668.385 526.004 669.622 526.508 670.533 527.518C671.445 528.52 671.9 529.874 671.9 531.58ZM664.039 531.58C664.039 534.074 664.96 535.32 666.803 535.32C668.626 535.32 669.537 534.074 669.537 531.58C669.537 529.113 668.619 527.879 666.783 527.879C665.82 527.879 665.12 528.198 664.684 528.836C664.254 529.474 664.039 530.389 664.039 531.58ZM684.049 537H681.744V530.359C681.744 529.526 681.575 528.904 681.236 528.494C680.904 528.084 680.374 527.879 679.645 527.879C678.674 527.879 677.965 528.165 677.516 528.738C677.066 529.311 676.842 530.271 676.842 531.619V537H674.547V526.199H676.344L676.666 527.615H676.783C677.109 527.101 677.571 526.704 678.17 526.424C678.769 526.144 679.433 526.004 680.162 526.004C682.753 526.004 684.049 527.322 684.049 529.959V537ZM694 537L693.541 535.496H693.463C692.942 536.154 692.418 536.603 691.891 536.844C691.363 537.078 690.686 537.195 689.859 537.195C688.798 537.195 687.968 536.909 687.369 536.336C686.777 535.763 686.48 534.952 686.48 533.904C686.48 532.791 686.894 531.951 687.721 531.385C688.548 530.818 689.807 530.509 691.5 530.457L693.365 530.398V529.822C693.365 529.132 693.202 528.618 692.877 528.279C692.558 527.934 692.06 527.762 691.383 527.762C690.829 527.762 690.299 527.843 689.791 528.006C689.283 528.169 688.795 528.361 688.326 528.582L687.584 526.941C688.17 526.635 688.811 526.404 689.508 526.248C690.204 526.085 690.862 526.004 691.48 526.004C692.854 526.004 693.889 526.303 694.586 526.902C695.289 527.501 695.641 528.442 695.641 529.725V537H694ZM690.582 535.438C691.415 535.438 692.083 535.206 692.584 534.744C693.092 534.275 693.346 533.621 693.346 532.781V531.844L691.959 531.902C690.878 531.941 690.09 532.124 689.596 532.449C689.107 532.768 688.863 533.26 688.863 533.924C688.863 534.406 689.007 534.78 689.293 535.047C689.579 535.307 690.009 535.438 690.582 535.438ZM710.016 537H707.721V527.781C707.721 526.681 707.747 525.809 707.799 525.164C707.649 525.32 707.464 525.493 707.242 525.682C707.027 525.87 706.298 526.469 705.055 527.479L703.902 526.023L708.102 522.723H710.016V537Z" fill="black"/>
</svg>
